<?xml version="1.0" encoding="UTF-8" standalone="no"?>
<!-- Created with Inkscape (http://www.inkscape.org/) -->

<svg
   width="512"
   height="512"
   viewBox="0 0 512 512"
   version="1.1"
   id="svg1"
   inkscape:version="1.3 (0e150ed6c4, 2023-07-21)"
   sodipodi:docname="yinyang2.svg"
   xmlns:inkscape="http://www.inkscape.org/namespaces/inkscape"
   xmlns:sodipodi="http://sodipodi.sourceforge.net/DTD/sodipodi-0.dtd"
   xmlns="http://www.w3.org/2000/svg"
   xmlns:svg="http://www.w3.org/2000/svg">
  <sodipodi:namedview
     id="namedview1"
     pagecolor="#505050"
     bordercolor="#ffffff"
     borderopacity="1"
     inkscape:showpageshadow="0"
     inkscape:pageopacity="0"
     inkscape:pagecheckerboard="1"
     inkscape:deskcolor="#505050"
     inkscape:document-units="px"
     inkscape:zoom="1.5951335"
     inkscape:cx="254.52416"
     inkscape:cy="253.27034"
     inkscape:window-width="1541"
     inkscape:window-height="1250"
     inkscape:window-x="975"
     inkscape:window-y="1471"
     inkscape:window-maximized="0"
     inkscape:current-layer="layer1" />
  <defs
     id="defs1" />
  <g
     inkscape:label="Layer 1"
     inkscape:groupmode="layer"
     id="layer1">
    <path
       d="M 256,0 C 243.80962,-3.4575917e-5 231.63467,0.87067746 219.56836,2.6054688 207.50159,4.3402281 195.57401,6.9347416 183.87695,10.369141 172.18005,13.804055 160.7433,18.070154 149.6543,23.134766 138.565,28.198617 127.85146,34.048184 117.5957,40.638672 107.34026,47.229356 97.568577,54.544252 88.355469,62.527344 79.14213,70.510721 70.510721,79.14213 62.527344,88.355469 54.544252,97.568577 47.229356,107.34026 40.638672,117.5957 34.048184,127.85146 28.198617,138.565 23.134766,149.6543 18.070154,160.7433 13.804055,172.18005 10.369141,183.87695 6.9347416,195.57401 4.3402281,207.50159 2.6054688,219.56836 0.87067746,231.63467 -3.4575917e-5,243.80962 0,256 c -3.4575917e-5,12.19038 0.87067746,24.36533 2.6054688,36.43164 1.7347593,12.06677 4.3292728,23.99435 7.7636722,35.69141 3.434914,11.6969 7.701013,23.13365 12.765625,34.22265 5.063851,11.0893 10.913418,21.80284 17.503906,32.0586 6.590684,10.25544 13.90558,20.02712 21.888672,29.24023 7.983377,9.21334 16.614786,17.84475 25.828125,25.82813 9.213108,7.98309 18.984791,15.29798 29.240231,21.88867 10.25576,6.59049 20.9693,12.44005 32.0586,17.5039 11.089,5.06462 22.52575,9.33071 34.22265,12.76563 11.69706,3.4344 23.62464,6.02891 35.69141,7.76367 12.06631,1.73479 24.24126,2.6055 36.43164,2.60547 12.19038,3e-5 24.36533,-0.87068 36.43164,-2.60547 12.06677,-1.73476 23.99435,-4.32927 35.69141,-7.76367 11.6969,-3.43492 23.13365,-7.70101 34.22265,-12.76563 11.0893,-5.06385 21.80284,-10.91341 32.0586,-17.5039 10.25544,-6.59069 20.02712,-13.90558 29.24023,-21.88867 9.21334,-7.98338 17.84475,-16.61479 25.82813,-25.82813 7.98309,-9.21311 15.29798,-18.98479 21.88867,-29.24023 6.59049,-10.25576 12.44005,-20.9693 17.5039,-32.0586 5.06462,-11.089 9.33071,-22.52575 12.76563,-34.22265 3.4344,-11.69706 6.02891,-23.62464 7.76367,-35.69141 C 511.12932,280.36533 512.00003,268.19038 512,256 c -9e-5,-4.18873 -0.10299,-8.37687 -0.30859,-12.56055 -0.20537,-4.18399 -0.51341,-8.36237 -0.92383,-12.53125 -0.41091,-4.16885 -0.92409,-8.32703 -1.53906,-12.4707 -0.61474,-4.14389 -1.33111,-8.27212 -2.14844,-12.38086 -0.81688,-4.10847 -1.73448,-8.19632 -2.75196,-12.25977 -1.01794,-4.06325 -2.13547,-8.10096 -3.35156,-12.10937 -1.21597,-4.00885 -2.53018,-7.98729 -3.9414,-11.93164 -1.41103,-3.94394 -2.91865,-7.8527 -4.52149,-11.72266 -1.603,-3.87049 -3.30079,-7.70111 -5.0918,-11.48828 -1.79135,-3.78653 -3.6754,-7.52858 -5.65039,-11.22265 -1.9747,-3.69399 -4.03979,-7.339 -6.19336,-10.93164 -2.15366,-3.59353 -4.39524,-7.13369 -6.72265,-10.61719 -2.32706,-3.48248 -4.73926,-6.90737 -7.23438,-10.27149 -2.49537,-3.36482 -5.07299,-6.667924 -7.73047,-9.906247 -2.65739,-3.238535 -5.39391,-6.411391 -8.20703,-9.515625 -2.81312,-3.103617 -5.70204,-6.137758 -8.66406,-9.099609 -2.96185,-2.962021 -5.99599,-5.850935 -9.09961,-8.664063 -3.10423,-2.813112 -6.27709,-5.549635 -9.51562,-8.207031 -3.23833,-2.657477 -6.54143,-5.235096 -9.90625,-7.730469 -3.36412,-2.495111 -6.78901,-4.907315 -10.27149,-7.234375 -3.4835,-2.327414 -7.02366,-4.568993 -10.61719,-6.722656 -3.59264,-2.153566 -7.23765,-4.218657 -10.93164,-6.193359 -3.69407,-1.97499 -7.43612,-3.859036 -11.22265,-5.650391 -3.78717,-1.791003 -7.61779,-3.488794 -11.48828,-5.091797 -3.86996,-1.602833 -7.77872,-3.110461 -11.72266,-4.521484 C 338.29979,13.55362 334.32135,12.239411 330.3125,11.023438 326.30409,9.8073523 322.26638,8.6898194 318.20312,7.671875 314.13968,6.6543967 310.05183,5.7367953 305.94336,4.9199219 301.83462,4.1025852 297.70639,3.3862179 293.5625,2.7714844 289.41883,2.1565108 285.26065,1.6433313 281.0918,1.2324219 276.92292,0.82199979 272.74454,0.51396185 268.56055,0.30859375 264.37687,0.1029859 260.18873,8.9514119e-5 256,0 Z m 0,28 c 3.97924,2.8e-5 7.95785,0.104231 11.93164,0.3125 3.97427,0.207935 7.94245,0.519893 11.90039,0.935547 3.95823,0.416134 7.90492,0.935848 11.83594,1.558594 3.93041,0.622712 7.84389,1.348227 11.73633,2.175781 3.89278,0.827569 7.76328,1.756931 11.60742,2.787109 3.84335,1.02951 7.65914,2.159463 11.44336,3.388672 3.78478,1.230342 7.53675,2.559584 11.25195,3.986328 3.71564,1.42561 7.39336,2.94828 11.0293,4.566406 3.63536,1.618574 7.22776,3.332065 10.77344,5.138672 3.54585,1.8072 7.04382,3.706955 10.49023,5.697266 3.44641,1.989591 6.84018,4.069096 10.17773,6.236328 3.33774,2.167649 6.61819,4.422345 9.83789,6.761719 3.2191,2.338826 6.37646,4.761551 9.46875,7.265625 3.09317,2.5043 6.12028,5.08919 9.07813,7.751953 2.95727,2.662892 5.84435,5.402785 8.6582,8.216797 2.81402,2.813854 5.55391,5.700933 8.2168,8.658203 2.66276,2.95785 5.24765,5.98496 7.75195,9.07813 2.50408,3.09229 4.9268,6.24965 7.26563,9.46875 2.33937,3.2197 4.59407,6.50015 6.76172,9.83789 2.16723,3.33755 4.24673,6.73132 6.23632,10.17773 1.99032,3.44641 3.89007,6.94438 5.69727,10.49023 1.80661,3.54568 3.5201,7.13808 5.13867,10.77344 1.61813,3.63594 3.1408,7.31366 4.56641,11.0293 1.42674,3.7152 2.75599,7.46717 3.98633,11.25195 1.22921,3.78422 2.35916,7.60001 3.38867,11.44336 1.03018,3.84414 1.95954,7.71464 2.78711,11.60742 0.82755,3.89244 1.55307,7.80592 2.17578,11.73633 0.62275,3.93102 1.14246,7.87771 1.55859,11.83594 0.41566,3.95794 0.72762,7.92612 0.93555,11.90039 0.20827,3.97379 0.31247,7.9524 0.3125,11.93164 1.9e-4,11.94444 -0.93826,23.87056 -2.80664,35.66797 -1.8684,11.7965 -4.66087,23.42809 -8.35156,34.78711 -3.69091,11.3598 -8.26884,22.41214 -13.69141,33.05469 -5.42304,10.64259 -11.67411,20.84269 -18.69531,30.50585 -7.02024,9.6629 -14.789,18.75933 -23.23438,27.20508 -8.44575,8.44538 -17.54218,16.21414 -27.20508,23.23438 -9.66316,7.0212 -19.86326,13.27227 -30.50585,18.69531 -10.64255,5.42257 -21.69489,10.0005 -33.05469,13.69141 -11.35902,3.69069 -22.99061,6.48316 -34.78711,8.35156 -9.16395,1.45132 -18.41413,2.16716 -27.68164,2.49219 5.84633,-0.41056 11.65929,-1.23725 17.38086,-2.54297 8.32223,-1.89954 16.40483,-4.72783 24.0957,-8.43164 7.69085,-3.70379 14.9414,-8.25971 21.61523,-13.58203 6.67374,-5.32214 12.72865,-11.37705 18.05079,-18.05079 5.32232,-6.67383 9.87824,-13.92438 13.58203,-21.61523 3.70381,-7.69087 6.5321,-15.77347 8.43164,-24.0957 C 369.04176,387.04512 370.00025,378.53602 370,370 c 1.4e-4,-2.84281 -0.10605,-5.68466 -0.31836,-8.51953 -0.21264,-2.83448 -0.53123,-5.66004 -0.95508,-8.4707 -0.42336,-2.81109 -0.95173,-5.60537 -1.58398,-8.37696 -0.63276,-2.77134 -1.36895,-5.51806 -2.20703,-8.23437 -0.83814,-2.71647 -1.7776,-5.40065 -2.81641,-8.04688 -1.03823,-2.64639 -2.1751,-5.25304 -3.4082,-7.81445 -1.23368,-2.56117 -2.56274,-5.0753 -3.98438,-7.53711 -1.42118,-2.46195 -2.93396,-4.86989 -4.53515,-7.21875 -1.60139,-2.34877 -3.29007,-4.63684 -5.0625,-6.85938 -1.77232,-2.22221 -3.62714,-4.37737 -5.56055,-6.46093 -1.93387,-2.08425 -3.94505,-4.09543 -6.0293,-6.0293 -2.08356,-1.93341 -4.23872,-3.78823 -6.46094,-5.56055 -2.22253,-1.77243 -4.5106,-3.46111 -6.85937,-5.0625 -2.34886,-1.60119 -4.7568,-3.11397 -7.21875,-4.53515 -2.46181,-1.42164 -4.97594,-2.7507 -7.53711,-3.98438 -2.56141,-1.2331 -5.16806,-2.36997 -7.81445,-3.4082 -2.64623,-1.03881 -5.33041,-1.97827 -8.04688,-2.81641 -2.71631,-0.83808 -5.46303,-1.57427 -8.23437,-2.20703 -2.77159,-0.63225 -5.56587,-1.16062 -8.37696,-1.58398 -2.81066,-0.42385 -5.63622,-0.74244 -8.4707,-0.95508 C 261.68466,256.10605 258.84281,255.99986 256,256 c -8.53601,2.5e-4 -17.04514,-0.95824 -25.36719,-2.85742 -8.32221,-1.89954 -16.40484,-4.72784 -24.0957,-8.43164 -7.69083,-3.70379 -14.94141,-8.25972 -21.61524,-13.58203 -6.67372,-5.32213 -12.72865,-11.37706 -18.05078,-18.05079 -5.32231,-6.67382 -9.87824,-13.9244 -13.58203,-21.61523 -3.7038,-7.69086 -6.5321,-15.77349 -8.43164,-24.0957 C 142.95824,159.04514 141.99975,150.53601 142,142 c -2.5e-4,-8.53601 0.95824,-17.04514 2.85742,-25.36719 1.89954,-8.32221 4.72784,-16.40484 8.43164,-24.095701 3.70379,-7.69083 8.25972,-14.941413 13.58203,-21.615234 5.32213,-6.673725 11.37706,-12.728652 18.05078,-18.050781 6.67383,-5.322311 13.92441,-9.878248 21.61524,-13.582032 7.69086,-3.703806 15.77349,-6.532104 24.0957,-8.43164 5.72156,-1.305719 11.53454,-2.132409 17.38086,-2.542969 C 250.67689,28.221051 253.33372,27.999959 256,28 Z m 0,298 c 1.99042,5e-5 3.97948,0.10436 5.95898,0.3125 1.97914,0.20812 3.94604,0.51975 5.89258,0.93359 1.94618,0.41342 3.8694,0.92845 5.76172,1.54297 1.89283,0.61515 3.75216,1.32902 5.57031,2.13867 1.81822,0.80956 3.59279,1.7138 5.31641,2.70899 1.72356,0.99523 3.39382,2.08005 5.00391,3.25 1.61003,1.1695 3.15773,2.42253 4.63671,3.7539 1.47893,1.33164 2.88712,2.73983 4.21875,4.21875 1.33138,1.47899 2.58441,3.02669 3.75391,4.63672 1.16995,1.61009 2.25477,3.28035 3.25,5.00391 0.99519,1.72362 1.89943,3.49819 2.70899,5.31641 0.80965,1.81815 1.52352,3.67748 2.13867,5.57031 0.61452,1.89232 1.12955,3.81554 1.54297,5.76172 0.41384,1.94654 0.72547,3.91344 0.93359,5.89258 0.20814,1.9795 0.31245,3.96856 0.3125,5.95898 1.6e-4,5.98105 -0.94105,11.92489 -2.78906,17.61328 -1.84868,5.68895 -4.58136,11.05147 -8.09766,15.89063 -3.51554,4.83862 -7.77075,9.09383 -12.60937,12.60937 -4.83916,3.5163 -10.20168,6.24898 -15.89063,8.09766 C 267.92489,439.05895 261.98105,440.00016 256,440 c -5.98105,1.6e-4 -11.92489,-0.94105 -17.61328,-2.78906 -5.68895,-1.84868 -11.05147,-4.58136 -15.89063,-8.09766 -4.83862,-3.51554 -9.09383,-7.77075 -12.60937,-12.60937 -3.5163,-4.83916 -6.24898,-10.20168 -8.09766,-15.89063 C 199.94105,394.92489 198.99984,388.98105 199,383 c -1.6e-4,-5.98105 0.94105,-11.92489 2.78906,-17.61328 1.84868,-5.68895 4.58136,-11.05147 8.09766,-15.89063 3.51554,-4.83862 7.77075,-9.09383 12.60937,-12.60937 4.83916,-3.5163 10.20168,-6.24898 15.89063,-8.09766 C 244.07511,326.94105 250.01895,325.99984 256,326 Z"
       style="stroke-width:0.945247"
       id="path6" />
    <path
       d="m 256,28 c -8.53602,-2.46e-4 -17.04512,0.958239 -25.36719,2.857422 -8.32223,1.89954 -16.40483,4.727826 -24.0957,8.43164 -7.69085,3.703791 -14.9414,8.25971 -21.61524,13.582032 -6.67373,5.32214 -12.72864,11.377043 -18.05078,18.050781 -5.32232,6.673834 -9.87824,13.924389 -13.58203,21.615234 -3.70381,7.690871 -6.5321,15.773471 -8.43164,24.095701 C 142.95824,124.95488 141.99975,133.46398 142,142 c -2.5e-4,8.53602 0.95824,17.04512 2.85742,25.36719 1.89954,8.32223 4.72783,16.40483 8.43164,24.0957 3.70379,7.69085 8.25971,14.9414 13.58203,21.61523 5.32214,6.67374 11.37705,12.72865 18.05078,18.05079 6.67384,5.32232 13.92439,9.87824 21.61524,13.58203 7.69087,3.70381 15.77347,6.5321 24.0957,8.43164 8.32207,1.89918 16.83117,2.85767 25.36719,2.85742 2.84281,-1.4e-4 5.68466,0.10605 8.51953,0.31836 2.83448,0.21264 5.66004,0.53123 8.4707,0.95508 2.81109,0.42336 5.60537,0.95173 8.37696,1.58398 2.77134,0.63276 5.51806,1.36895 8.23437,2.20703 2.71647,0.83814 5.40065,1.7776 8.04688,2.81641 2.64639,1.03823 5.25304,2.1751 7.81445,3.4082 2.56117,1.23368 5.0753,2.56274 7.53711,3.98438 2.46195,1.42118 4.86989,2.93396 7.21875,4.53515 2.34877,1.60139 4.63684,3.29007 6.85937,5.0625 2.22222,1.77232 4.37738,3.62714 6.46094,5.56055 2.08425,1.93387 4.09543,3.94505 6.0293,6.0293 1.93341,2.08356 3.78823,4.23872 5.56055,6.46093 1.77243,2.22254 3.46111,4.51061 5.0625,6.85938 1.60119,2.34886 3.11397,4.7568 4.53515,7.21875 1.42164,2.46181 2.7507,4.97594 3.98438,7.53711 1.2331,2.56141 2.36997,5.16806 3.4082,7.81445 1.03881,2.64623 1.97827,5.33041 2.81641,8.04688 0.83808,2.71631 1.57427,5.46303 2.20703,8.23437 0.63225,2.77159 1.16062,5.56587 1.58398,8.37696 0.42385,2.81066 0.74244,5.63622 0.95508,8.4707 0.21231,2.83487 0.3185,5.67672 0.31836,8.51953 2.5e-4,8.53602 -0.95824,17.04512 -2.85742,25.36719 -1.89954,8.32223 -4.72783,16.40483 -8.43164,24.0957 -3.70379,7.69085 -8.25971,14.9414 -13.58203,21.61523 -5.32214,6.67374 -11.37705,12.72865 -18.05079,18.05079 -6.67383,5.32232 -13.92438,9.87824 -21.61523,13.58203 -7.69087,3.70381 -15.77347,6.5321 -24.0957,8.43164 C 273.04512,483.04176 264.53602,484.00025 256,484 c 11.94446,1.9e-4 23.87054,-0.93825 35.66797,-2.80664 11.79652,-1.86841 23.42807,-4.66087 34.78711,-8.35156 11.35983,-3.69092 22.41212,-8.26883 33.05469,-13.69141 10.64261,-5.42305 20.84267,-11.67409 30.50585,-18.69531 9.66292,-7.02025 18.75931,-14.78898 27.20508,-23.23438 8.4454,-8.44577 16.21413,-17.54216 23.23438,-27.20508 7.02122,-9.66318 13.27226,-19.86324 18.69531,-30.50585 5.42258,-10.64257 10.00049,-21.69486 13.69141,-33.05469 3.69069,-11.35904 6.48315,-22.99059 8.35156,-34.78711 C 483.06175,279.87054 484.00019,267.94446 484,256 c -3e-5,-3.97925 -0.10423,-7.95784 -0.3125,-11.93164 -0.20794,-3.97427 -0.51989,-7.94245 -0.93555,-11.90039 -0.41613,-3.95823 -0.93584,-7.90491 -1.55859,-11.83594 -0.62271,-3.93042 -1.34823,-7.84388 -2.17578,-11.73633 -0.82757,-3.89279 -1.75693,-7.76327 -2.78711,-11.60742 -1.02951,-3.84336 -2.15946,-7.65913 -3.38867,-11.44336 -1.23035,-3.78479 -2.55958,-7.53674 -3.98633,-11.25195 -1.42561,-3.71565 -2.94828,-7.39336 -4.56641,-11.0293 -1.61857,-3.63537 -3.33206,-7.22776 -5.13867,-10.77344 -1.8072,-3.54586 -3.70695,-7.04382 -5.69727,-10.49023 -1.98959,-3.44641 -4.06909,-6.84017 -6.23632,-10.17773 -2.16766,-3.33775 -4.42234,-6.61818 -6.76172,-9.83789 -2.33883,-3.21911 -4.76155,-6.37645 -7.26563,-9.46875 -2.5043,-3.09318 -5.08918,-6.12027 -7.75195,-9.07813 -2.6629,-2.95728 -5.40278,-5.844344 -8.2168,-8.658203 -2.81386,-2.814018 -5.70092,-5.5539 -8.6582,-8.216797 -2.95786,-2.662768 -5.98495,-5.247648 -9.07813,-7.751953 -3.0923,-2.504079 -6.24964,-4.926794 -9.46875,-7.265625 -3.21971,-2.339378 -6.50014,-4.594066 -9.83789,-6.761719 C 376.84017,62.615967 373.44641,60.53647 370,58.546875 c -3.44641,-1.990315 -6.94437,-3.890062 -10.49023,-5.697266 -3.54568,-1.806611 -7.13807,-3.520095 -10.77344,-5.138672 -3.63594,-1.618129 -7.31365,-3.140793 -11.0293,-4.566406 -3.71521,-1.426747 -7.46716,-2.755984 -11.25195,-3.986328 -3.78423,-1.229211 -7.6,-2.35916 -11.44336,-3.388672 -3.84415,-1.03018 -7.71463,-1.959539 -11.60742,-2.787109 -3.89245,-0.827556 -7.80591,-1.553068 -11.73633,-2.175781 -3.93103,-0.622748 -7.87771,-1.142459 -11.83594,-1.558594 C 275.87409,28.832392 271.90591,28.520435 267.93164,28.3125 263.95784,28.104231 259.97925,28.000028 256,28 Z m 0,44 c 1.99042,5.2e-5 3.97948,0.104362 5.95898,0.3125 1.97914,0.20812 3.94604,0.519745 5.89258,0.933594 1.94618,0.413412 3.8694,0.928442 5.76172,1.542968 1.89283,0.615151 3.75216,1.329022 5.57031,2.138672 1.81822,0.809556 3.59279,1.713793 5.31641,2.708985 1.72356,0.995228 3.39382,2.080051 5.00391,3.25 1.61003,1.169504 3.15773,2.422527 4.63671,3.753906 1.47893,1.331636 2.88712,2.73982 4.21875,4.21875 1.33138,1.478983 2.58441,3.026681 3.75391,4.636719 1.16995,1.610081 2.25477,3.280345 3.25,5.003906 0.99519,1.72362 1.89943,3.49819 2.70899,5.31641 0.80965,1.81815 1.52352,3.67748 2.13867,5.57031 0.61452,1.89232 1.12955,3.81554 1.54297,5.76172 0.41384,1.94654 0.72547,3.91344 0.93359,5.89258 0.20814,1.9795 0.31245,3.96856 0.3125,5.95898 1.6e-4,5.98105 -0.94105,11.92489 -2.78906,17.61328 -1.84868,5.68895 -4.58136,11.05147 -8.09766,15.89063 -3.51554,4.83862 -7.77075,9.09383 -12.60937,12.60937 -4.83916,3.5163 -10.20168,6.24898 -15.89063,8.09766 C 267.92489,185.05895 261.98105,186.00016 256,186 c -5.98105,1.6e-4 -11.92489,-0.94105 -17.61328,-2.78906 -5.68895,-1.84868 -11.05147,-4.58136 -15.89063,-8.09766 -4.83862,-3.51554 -9.09383,-7.77075 -12.60937,-12.60937 -3.5163,-4.83916 -6.24898,-10.20168 -8.09766,-15.89063 C 199.94105,140.92489 198.99984,134.98105 199,129 c -1.6e-4,-5.98105 0.94105,-11.92489 2.78906,-17.61328 1.84868,-5.68895 4.58136,-11.05147 8.09766,-15.890626 3.51554,-4.838627 7.77075,-9.09383 12.60937,-12.609375 4.83916,-3.516302 10.20168,-6.248974 15.89063,-8.097657 C 244.07511,72.941048 250.01895,71.999841 256,72 Z"
       style="stroke-width:0.42093;fill:#ffffff"
       id="path8" />
    <path
       d="m 256,326 a 57,57 0 0 0 -17.61328,2.78906 57,57 0 0 0 -15.89063,8.09766 57,57 0 0 0 -12.60937,12.60937 57,57 0 0 0 -8.09766,15.89063 A 57,57 0 0 0 199,383 a 57,57 0 0 0 2.78906,17.61328 57,57 0 0 0 8.09766,15.89063 57,57 0 0 0 12.60937,12.60937 57,57 0 0 0 15.89063,8.09766 A 57,57 0 0 0 256,440 a 57,57 0 0 0 17.61328,-2.78906 57,57 0 0 0 15.89063,-8.09766 57,57 0 0 0 12.60937,-12.60937 57,57 0 0 0 8.09766,-15.89063 A 57,57 0 0 0 313,383 a 57,57 0 0 0 -0.3125,-5.95898 57,57 0 0 0 -0.93359,-5.89258 57,57 0 0 0 -1.54297,-5.76172 57,57 0 0 0 -2.13867,-5.57031 57,57 0 0 0 -2.70899,-5.31641 57,57 0 0 0 -3.25,-5.00391 57,57 0 0 0 -3.75391,-4.63672 57,57 0 0 0 -4.21875,-4.21875 57,57 0 0 0 -4.63671,-3.7539 57,57 0 0 0 -5.00391,-3.25 57,57 0 0 0 -5.31641,-2.70899 57,57 0 0 0 -5.57031,-2.13867 57,57 0 0 0 -5.76172,-1.54297 57,57 0 0 0 -5.89258,-0.93359 A 57,57 0 0 0 256,326 Z"
       style="fill:#f9f9f9;stroke-width:0.210465"
       id="path9" />
    <path
       d="m 256,72 a 57,57 0 0 0 -17.61328,2.789062 57,57 0 0 0 -15.89063,8.097657 57,57 0 0 0 -12.60937,12.609375 57,57 0 0 0 -8.09766,15.890626 A 57,57 0 0 0 199,129 a 57,57 0 0 0 2.78906,17.61328 57,57 0 0 0 8.09766,15.89063 57,57 0 0 0 12.60937,12.60937 57,57 0 0 0 15.89063,8.09766 A 57,57 0 0 0 256,186 a 57,57 0 0 0 17.61328,-2.78906 57,57 0 0 0 15.89063,-8.09766 57,57 0 0 0 12.60937,-12.60937 57,57 0 0 0 8.09766,-15.89063 A 57,57 0 0 0 313,129 a 57,57 0 0 0 -0.3125,-5.95898 57,57 0 0 0 -0.93359,-5.89258 57,57 0 0 0 -1.54297,-5.76172 57,57 0 0 0 -2.13867,-5.57031 57,57 0 0 0 -2.70899,-5.31641 57,57 0 0 0 -3.25,-5.003906 57,57 0 0 0 -3.75391,-4.636719 57,57 0 0 0 -4.21875,-4.21875 57,57 0 0 0 -4.63671,-3.753906 57,57 0 0 0 -5.00391,-3.25 57,57 0 0 0 -5.31641,-2.708985 57,57 0 0 0 -5.57031,-2.138672 57,57 0 0 0 -5.76172,-1.542968 A 57,57 0 0 0 261.95898,72.3125 57,57 0 0 0 256,72 Z"
       style="fill:#1a1a1a;stroke-width:0.210465"
       id="path7" />
  </g>
</svg>
